<svg width="119" height="119" viewBox="0 0 119 119" fill="none" xmlns="http://www.w3.org/2000/svg">
<path d="M23.8 29.7501H4.64098C2.43948 29.7501 0.237976 31.6541 0.535476 34.7481L9.81748 94.1886C9.81748 94.1886 20.825 50.3966 22.967 39.8651C23.6215 36.7116 26.5965 35.7001 28.798 35.7001H59.5C59.5 35.7001 55.335 23.3241 54.9185 21.9556C54.2045 19.3376 52.8955 17.8501 50.2775 17.8501H30.583C28.441 17.8501 26.418 19.2186 25.823 21.6581C25.2875 24.0381 23.8 29.7501 23.8 29.7501ZM52.836 29.7501H29.036C29.036 29.7501 31.535 23.8001 34.2125 23.8001H46.886C49.742 23.8001 52.836 29.7501 52.836 29.7501ZM15.8865 96.6876C14.042 99.4841 11.3645 101.15 8.38948 101.15H101.983C105.196 101.15 107.457 99.3056 108.111 96.2116C110.729 83.1811 118.107 45.9936 118.107 45.9936C118.524 43.0186 116.322 41.6501 114.418 41.6501H95.2V32.9036C95.2 31.9516 93.653 29.7501 91.273 29.7501H68.901C65.807 29.7501 63.7245 33.2011 63.7245 33.2011L59.5 41.6501H33.2605C31.3565 41.6501 29.512 42.7806 29.155 44.6251C29.155 44.6251 19.6945 84.4901 18.921 88.2386C18.5045 90.4401 17.612 94.1291 15.8865 96.6876ZM91.511 41.6501H65.45C65.45 41.6501 68.901 35.7001 72.1735 35.7001H85.799C90.0235 35.7001 91.511 41.6501 91.511 41.6501Z" fill="#9333EA"/>
</svg>
